<svg width="315" height="298" viewBox="0 0 315 298" fill="none" xmlns="http://www.w3.org/2000/svg">
<path opacity="0.601834" fill-rule="evenodd" clip-rule="evenodd" d="M25.4115 0C27.3193 1.53659 26.556 3.84206 29.9894 7.30027C33.4228 10.7585 57.838 26.5129 66.9938 27.2818C76.1497 28.0495 83.3988 25.3602 85.3055 24.5913C87.2134 23.8236 87.5945 21.5181 91.0279 22.6708C94.4614 23.8236 94.0802 25.744 95.2247 26.5129C96.3692 27.2818 102.092 29.2022 103.999 28.0495C105.906 26.8967 107.814 27.6656 109.722 23.8236C111.629 19.9803 113.917 14.9855 118.114 16.5221C122.311 18.0599 121.548 19.2126 125.362 20.3654C129.178 21.5181 132.611 20.7492 136.045 23.4385C139.478 26.129 141.385 26.8967 146.726 29.2022C152.068 31.5077 155.501 32.2766 160.079 35.7348C164.657 39.193 165.801 39.5768 165.419 42.6512C165.038 45.7255 164.657 44.9566 164.657 48.031V57.2529C164.657 63.4004 158.553 66.8586 162.749 68.7802C166.946 70.7007 166.946 72.6223 170.76 70.7007C174.575 68.7802 173.049 63.0165 177.246 67.6275C181.442 72.2384 182.586 73.775 182.969 79.9225C183.35 86.0712 183.732 88.3767 184.494 92.2187C185.257 96.0608 183.35 97.2135 186.402 98.3663C189.453 99.519 191.361 97.2135 191.742 100.288C192.124 103.362 191.361 104.131 194.413 105.668C197.464 107.204 202.806 107.973 198.991 111.431C195.176 114.89 194.032 116.81 193.65 121.037C193.269 125.264 196.32 142.555 202.042 144.476C207.765 146.397 206.239 148.319 219.21 147.166C232.181 146.013 237.904 139.481 240.955 134.486C244.007 129.49 244.77 124.88 248.204 124.111C251.637 123.343 253.163 123.728 251.637 126.417C250.111 129.106 247.822 129.49 248.204 132.948C248.585 136.407 249.348 140.634 252.018 143.323C254.688 146.013 254.688 147.934 256.215 150.239C257.741 152.546 259.649 153.699 259.266 156.004C258.885 158.31 258.123 160.998 257.741 162.536C257.36 164.073 252.782 161.767 256.215 167.146C259.649 172.526 260.03 171.757 264.227 177.137C268.422 182.517 271.857 188.281 272.619 190.97C273.382 193.659 271.856 195.965 274.527 200.192C277.197 204.419 281.012 209.029 283.683 210.95C286.353 212.872 284.064 213.64 284.445 216.714C284.827 219.788 288.642 222.863 289.786 225.552C290.931 228.241 292.839 233.237 292.456 234.774C292.075 236.311 289.405 247.07 289.405 250.912C289.405 254.754 289.023 258.212 291.694 261.671C294.364 265.129 293.601 267.434 298.561 265.898C303.52 264.361 305.428 265.129 307.335 267.434C309.242 269.74 309.242 273.967 312.295 276.272C315.346 278.578 316.109 280.882 313.057 283.573C310.006 286.263 308.48 288.951 308.098 290.489C307.717 292.027 303.139 295.484 299.323 296.253C295.509 297.022 299.705 298.559 288.261 297.79C276.816 297.022 277.96 299.326 272.619 296.253C267.278 293.18 268.422 292.412 263.844 290.874C259.266 289.336 257.36 286.648 251.637 286.263C245.915 285.878 242.1 287.8 240.574 283.189C239.048 278.578 232.943 273.198 233.326 268.587C233.707 263.976 227.984 255.907 224.551 254.754C221.117 253.602 218.828 248.991 219.973 244.38C221.117 239.769 219.973 238.616 218.447 234.005C216.921 229.394 215.014 230.164 215.395 222.863C215.776 215.561 216.921 213.641 215.014 211.719C213.106 209.798 215.014 210.183 209.673 207.108C204.331 204.034 206.239 207.109 201.28 202.114C196.32 197.118 195.939 195.197 192.124 194.044C188.309 192.892 191.361 192.123 186.402 192.123C181.442 192.123 182.205 194.043 178.772 191.354C175.338 188.665 170.379 185.975 167.327 187.512C164.275 189.048 160.841 189.432 161.986 193.659C163.13 197.886 163.893 198.27 163.512 202.881C163.13 207.492 159.697 208.645 160.841 211.719C161.986 214.794 162.749 214.409 161.986 217.867C161.223 221.325 161.223 223.632 159.316 221.71C157.408 219.788 158.552 217.098 154.738 217.867C150.923 218.636 149.396 218.637 149.015 220.557C148.634 222.478 149.015 224.398 147.107 222.478C145.201 220.557 142.912 221.325 141.004 216.714C139.096 212.103 137.57 210.95 134.137 209.798C130.704 208.645 130.704 207.107 127.651 205.187C124.6 203.266 116.97 201.343 115.062 201.729C113.155 202.114 108.195 200.576 107.814 204.034C107.433 207.492 108.577 206.341 108.577 211.335C108.577 216.33 106.288 215.561 107.051 217.483C107.814 219.405 107.814 220.173 110.103 222.863C112.392 225.552 116.97 229.778 117.733 231.7C118.495 233.621 118.497 236.311 116.589 236.311C114.681 236.311 109.341 234.775 108.577 236.696C107.814 238.616 107.814 240.154 106.67 241.69C105.525 243.227 100.185 246.685 99.4215 242.843C98.6582 239.001 102.092 237.464 96.7503 234.39C91.4102 231.316 91.0279 232.852 87.2134 231.7C83.3988 230.547 81.8721 229.394 82.6354 224.783C83.3988 220.172 82.2543 218.637 78.8209 217.099C75.3875 215.561 70.4273 216.714 70.4273 210.567C70.4273 204.419 72.3351 200.193 67.7572 198.655C63.1793 197.118 62.0348 199.807 58.2203 193.659C54.4046 187.512 54.4046 187.512 50.59 181.748C46.7755 175.984 47.5388 177.905 45.631 172.91C43.7231 167.915 41.4342 169.452 44.1043 165.61C46.7755 161.768 53.2601 158.693 52.879 157.541C52.4979 156.388 49.4455 157.157 50.2089 152.546C50.9711 147.934 54.4046 147.935 52.879 144.861C51.3534 141.786 51.3534 142.17 49.0644 139.865C46.7755 137.559 45.2487 138.328 46.0121 134.87C46.7755 131.412 50.9711 128.337 48.6822 123.726C46.3932 119.115 41.8164 113.737 36.4752 109.894C31.1339 106.052 29.6083 104.515 25.0304 101.057C20.4524 97.5985 16.2556 98.7513 12.4411 95.2931C8.6254 91.8349 9.38877 92.2187 5.95533 88.7605C2.52189 85.3023 -2.43714 83.7657 1.37741 78.3859C5.19196 73.0061 4.81085 69.9329 3.66637 64.5531C2.52189 59.1733 2.14078 56.484 2.52189 43.8039C2.903 31.1238 -2.43714 29.5872 2.52189 23.0547C7.48092 16.5221 4.42974 16.9072 9.76988 12.6801C15.1112 8.453 19.308 3.07434 20.8336 1.92161C22.3591 0.768874 25.4115 0 25.4115 0Z" fill="black"/>
</svg>
