<svg width="219" height="36" viewBox="0 0 219 36" fill="none" xmlns="http://www.w3.org/2000/svg">
<path fill-rule="evenodd" clip-rule="evenodd" d="M11.5047 35.739L15.4227 26.1973L19.2567 35.739L24.5222 20.889L23.1739 20.3413L19.3827 29.6516L15.6122 20.2993L11.8202 29.6516L9.65075 23.3747C9.60875 23.2204 9.58732 23.0936 9.58732 22.9959C9.58732 22.5184 10.1427 22.2793 11.2519 22.2793L10.7882 20.847H5.14303V22.2793C5.78932 22.2793 6.25217 22.3573 6.53332 22.5107C6.63189 22.5673 6.71589 22.6513 6.78618 22.7636C6.84189 22.8759 6.90532 23.0096 6.97646 23.1639L11.5047 35.739ZM28.7356 33.1061C28.2299 32.6295 27.9693 32.0398 27.9556 31.337L27.3865 30.5793H34.3173C34.3448 28.697 33.8605 27.293 32.8636 26.3655C32.0913 25.6353 31.0936 25.271 29.8722 25.271C28.5942 25.271 27.5348 25.6987 26.6922 26.5558C25.7785 27.4961 25.3225 28.7321 25.3225 30.263C25.3225 31.709 25.7442 32.9313 26.5868 33.9281C27.4293 34.925 28.5033 35.423 29.8088 35.423C30.3145 35.423 30.8905 35.3458 31.5368 35.1915V33.8013H30.5673C29.8371 33.8013 29.2268 33.5698 28.7356 33.1061ZM32.8782 29.2935C32.8782 29.1393 32.8576 28.9498 32.8148 28.7253C32.6048 27.461 31.9585 26.8293 30.8776 26.8293C29.5713 26.8293 28.8196 27.6435 28.6233 29.273L29.2551 29.2935H32.8782ZM48.6824 22.8057C49.441 22.8057 49.8901 23.2909 50.0307 24.2595L51.4415 23.9646L51.0207 20.8472H41.9838L41.6898 22.3C42.6584 22.3 43.1427 22.6797 43.1427 23.4383V35.2129H45.7338V29.6937C45.7338 29.3569 45.9155 29.146 46.2807 29.062L49.7144 28.2195V27.208H45.649V22.8057H48.6824ZM54.4537 34.6017C53.7517 33.8997 53.4003 32.8471 53.4003 31.4422V23.3534C53.4003 22.4971 53.0077 22.1251 52.2208 22.2374L52.3897 21.0785L55.3177 20.5308L55.7805 20.9097V32.4742L57.0448 34.0968L55.2748 35.4228L54.4537 34.6017ZM62.669 35.4231C65.8001 35.4231 67.3661 33.7037 67.3661 30.2631C67.3661 28.6483 66.9521 27.4054 66.1233 26.5337C65.309 25.692 64.157 25.2703 62.669 25.2703C61.2641 25.2703 60.155 25.6989 59.3407 26.5551C58.4981 27.4397 58.0773 28.6757 58.0773 30.2631C58.0773 31.962 58.4844 33.2469 59.2987 34.1177C60.0993 34.9886 61.223 35.4231 62.669 35.4231ZM64.9018 30.2837C64.9018 27.9386 64.151 26.766 62.6484 26.766C61.9593 26.766 61.4193 27.1097 61.0258 27.798C60.689 28.4023 60.5201 29.2234 60.5201 30.2631C60.5201 32.706 61.229 33.9274 62.6484 33.9274C64.151 33.9274 64.9018 32.7129 64.9018 30.2837ZM71.3307 32.1092V25.8984H69.7251C69.7251 25.8984 69.1785 30.8108 69.076 32.2496C68.9735 33.6882 69.6227 35.5479 71.8432 35.5479C74.0637 35.5479 75.1571 33.7583 75.1571 33.7583L76.4895 35.5479L78.1633 34.1794L77.0019 32.6355V25.9685L76.5235 25.4421L73.7905 26.179V27.2317C73.7905 27.2317 74.8496 27.758 74.8496 28.3896V31.9687C74.8496 32.8461 73.3805 33.8636 72.6973 33.8636C72.0141 33.8636 71.3307 33.0917 71.3307 32.1092ZM85.6352 28.0299C85.2135 27.5388 84.736 27.2928 84.2029 27.2928C83.29 27.2928 82.5177 27.6717 81.8852 28.4302L82.054 29.9679V33.0639C82.054 33.4719 82.1877 33.7385 82.4543 33.8645C82.6515 33.9485 83.0303 33.9914 83.5917 33.9914L83.3389 35.2128H79.6737V27.9879C79.6737 27.1591 79.2803 26.7871 78.4943 26.8711L78.6632 25.7122L81.5912 25.1654L82.054 25.5657V26.9559C82.0678 26.9559 82.0823 26.9482 82.0969 26.9345C82.4475 26.4571 82.876 26.0645 83.3817 25.7551C83.9149 25.4319 84.4343 25.2708 84.94 25.2708C85.6558 25.2708 86.2532 25.4808 86.7306 25.9025L85.846 27.9665L85.6352 28.0299ZM90.3526 23.4378C90.5634 23.1995 90.6688 22.9321 90.6688 22.6372C90.6688 22.3149 90.5565 22.0407 90.332 21.8161C90.1074 21.5915 89.84 21.4784 89.5314 21.4784C89.2083 21.4784 88.9348 21.5915 88.7103 21.8161C88.4857 22.0407 88.3725 22.3149 88.3725 22.6372C88.3725 22.9467 88.4857 23.2132 88.7103 23.4378C88.9348 23.6624 89.2083 23.7747 89.5314 23.7747C89.8545 23.7747 90.128 23.6624 90.3526 23.4378ZM89.426 34.6012C88.724 33.8718 88.3725 32.8184 88.3725 31.4418V27.9875C88.3725 27.1312 87.98 26.7592 87.1931 26.8715L87.362 25.7127L90.29 25.1649L90.7537 25.5447V32.4747L92.0171 34.0964L90.2265 35.4232L89.426 34.6012ZM98.9682 34.6439C99.6702 34.1528 100.022 33.4576 100.022 32.5585C100.022 31.8282 99.6282 31.1331 98.8422 30.4731C98.7436 30.3891 98.5113 30.2202 98.1462 29.9682L96.6513 28.9782C95.8645 28.4588 95.4788 28.0371 95.4925 27.7139C95.5062 27.1525 95.9142 26.8713 96.7148 26.8713C97.4725 26.8713 97.9568 27.0402 98.1676 27.3771L98.4205 28.3251C98.4908 28.6482 98.7505 28.8093 99.2005 28.8093C99.3968 28.8093 99.6068 28.7888 99.8322 28.7459V26.5345C99.1576 25.6919 98.1051 25.2711 96.6719 25.2711C95.5911 25.2711 94.7408 25.5025 94.1236 25.9653C93.5193 26.4008 93.2031 27.0256 93.1756 27.8408C93.1473 28.6268 93.5125 29.3433 94.2711 29.9888C94.4528 30.1576 95.1771 30.6351 96.4405 31.4211C97.2128 31.8985 97.5993 32.3339 97.5993 32.7273C97.5993 33.4859 96.9531 33.8648 95.6613 33.8648H93.3651V35.0862C94.1236 35.3108 95.0082 35.4231 96.0196 35.4231C97.2693 35.4231 98.2525 35.1642 98.9682 34.6439ZM108.3 28.9357C108.103 27.56 107.549 26.8717 106.636 26.8717C105.864 26.8717 105.084 27.356 104.298 28.3245L104.509 29.7363V35.2125H102.128V23.354C102.128 22.4968 101.735 22.1248 100.948 22.2371L101.117 21.0783L104.045 20.5305L104.509 20.9103V26.8083C105.323 25.7831 106.327 25.2705 107.521 25.2705C108.461 25.2705 109.206 25.5654 109.753 26.1551C110.329 26.8014 110.617 27.6928 110.617 28.8303V35.2125H109.121L108.3 28.9357ZM121.192 23.4378C121.402 23.1995 121.507 22.9321 121.507 22.6372C121.507 22.3149 121.394 22.0407 121.169 21.8161C120.946 21.5915 120.677 21.4784 120.37 21.4784C120.047 21.4784 119.773 21.5915 119.549 21.8161C119.322 22.0407 119.21 22.3149 119.21 22.6372C119.21 22.9467 119.322 23.2132 119.549 23.4378C119.773 23.6624 120.047 23.7747 120.37 23.7747C120.693 23.7747 120.965 23.6624 121.192 23.4378ZM120.264 34.6012C119.561 33.8718 119.21 32.8184 119.21 31.4418V27.9875C119.21 27.1312 118.817 26.7592 118.031 26.8715L118.2 25.7127L121.128 25.1649L121.592 25.5447V32.4747L122.855 34.0964L121.064 35.4232L120.264 34.6012ZM129.049 26.8717C129.96 26.8717 130.516 27.56 130.712 28.9357L131.533 35.2125H133.028V28.8097C133.028 27.6714 132.733 26.7868 132.145 26.1551C131.596 25.5654 130.86 25.2705 129.933 25.2705C128.766 25.2705 127.776 25.7831 126.962 26.8083H126.919V25.544L126.456 25.1651L123.528 25.7128L123.361 26.8717C124.147 26.7585 124.54 27.1314 124.54 27.9877V35.2125H126.919V29.7363L126.709 28.3245C127.495 27.356 128.275 26.8717 129.049 26.8717ZM146.74 35.1286C145.842 35.3249 145.042 35.4235 144.339 35.4235C143.357 35.4235 142.578 35.1492 142.002 34.6015C141.398 34.0118 141.123 33.2472 141.181 32.3061L141.707 22.6161L143.56 22.2372V25.4815H146.551V27.0818H143.56V32.4115C143.56 33.3801 143.968 33.8643 144.782 33.8643H146.74V35.1286ZM153.167 26.8717C154.078 26.8717 154.633 27.56 154.829 28.9357L155.651 35.2125H157.146V28.8303C157.146 27.6928 156.858 26.8014 156.282 26.1551C155.736 25.5654 154.99 25.2705 154.051 25.2705C152.855 25.2705 151.852 25.7831 151.037 26.8083V20.9103L150.574 20.5305L147.646 21.0783L147.479 22.2371C148.265 22.1248 148.658 22.4968 148.658 23.354V35.2125H151.037V29.7363L150.827 28.3245C151.613 27.356 152.393 26.8717 153.167 26.8717ZM161.824 31.337C161.836 32.0398 162.097 32.6295 162.603 33.1061C163.093 33.5698 163.705 33.8013 164.436 33.8013H165.405V35.1915C164.759 35.3458 164.183 35.423 163.677 35.423C162.371 35.423 161.298 34.925 160.453 33.9281C159.612 32.9313 159.191 31.709 159.191 30.263C159.191 28.7321 159.647 27.4961 160.559 26.5558C161.402 25.6987 162.463 25.271 163.74 25.271C164.962 25.271 165.958 25.6353 166.73 26.3655C167.728 27.293 168.213 28.697 168.185 30.5793H161.255L161.824 31.337ZM165.826 28.7253C165.868 28.9498 165.889 29.1393 165.889 29.2935H162.265L161.633 29.273C161.831 27.6435 162.583 26.8293 163.888 26.8293C164.969 26.8293 165.615 27.461 165.826 28.7253ZM187.731 29.7573C187.731 31.541 187.248 32.9313 186.279 33.9281C185.282 34.925 183.904 35.423 182.149 35.423C180.717 35.423 179.523 34.9884 178.569 34.1175C177.488 33.1207 176.947 31.7158 176.947 29.9047V24.2595C176.947 23.5293 176.891 23.0587 176.779 22.8478C176.596 22.469 176.187 22.2795 175.557 22.2795V20.8464H180.464L180.781 22.2795C179.812 22.2795 179.326 22.6447 179.326 23.375V29.6518C179.326 30.9435 179.517 31.8358 179.897 32.327C180.489 33.0855 181.228 33.4644 182.115 33.4644C184.073 33.4644 185.144 32.1513 185.327 29.525L185.94 20.8464H187.731V29.7573ZM197.094 34.2228C197.886 33.5345 198.299 32.6079 198.326 31.4422C198.341 30.0665 197.799 28.9222 196.7 28.0085C196.587 27.9108 195.558 27.2997 193.614 26.1759C192.5 25.5442 191.957 24.8559 191.987 24.1119C192.015 23.5788 192.239 23.1717 192.661 22.8897C193.067 22.5957 193.623 22.4619 194.324 22.4902C195.266 22.5322 195.847 22.7499 196.073 23.1425C196.17 23.3114 196.27 23.7322 196.368 24.4068C196.439 24.8559 196.663 25.0814 197.042 25.0814C197.279 25.0814 197.575 25.0179 197.926 24.8911V21.7737C197.673 21.5637 197.237 21.3382 196.621 21.0999C195.807 20.8051 195.026 20.6568 194.282 20.6568C192.906 20.6568 191.804 21.0228 190.976 21.7539C190.146 22.4722 189.733 23.4288 189.733 24.6237C189.733 25.8622 190.272 26.9165 191.354 27.7882L192.872 28.7174L194.367 29.6662C195.449 30.3417 195.975 31.0805 195.947 31.8819C195.947 32.3037 195.764 32.6765 195.398 32.9997C194.978 33.3802 194.402 33.5697 193.671 33.5697L190.069 33.5277V35.0654C190.785 35.2899 191.852 35.4022 193.272 35.4022C194.901 35.4022 196.174 35.0097 197.094 34.2228ZM213.008 34.6864C213.008 34.869 212.93 35.037 212.776 35.1921C212.594 35.3456 212.411 35.4236 212.229 35.4236C211.878 35.4236 211.632 35.2684 211.491 34.9599L209.702 31.2527H203.593L202.771 33.2533C202.729 33.3519 202.707 33.4504 202.707 33.549C202.707 33.9141 203.072 34.0967 203.804 34.0967L203.423 35.2127H198.812V34.0967C199.597 34.0967 200.074 33.8996 200.243 33.5061L204.667 22.7636C204.708 22.6513 204.731 22.5604 204.731 22.4901C204.731 22.0967 204.414 21.9004 203.781 21.9004L204.225 20.7836H207.362L212.945 34.3907C212.987 34.4893 213.008 34.5879 213.008 34.6864ZM208.838 29.4621H204.329L206.374 24.2173L208.838 29.4621Z" fill="black"/>
<mask id="mask0" mask-type="alpha" maskUnits="userSpaceOnUse" x="5" y="20" width="209" height="16">
<path fill-rule="evenodd" clip-rule="evenodd" d="M11.5047 35.739L15.4227 26.1973L19.2567 35.739L24.5222 20.889L23.1739 20.3413L19.3827 29.6516L15.6122 20.2993L11.8202 29.6516L9.65075 23.3747C9.60875 23.2204 9.58732 23.0936 9.58732 22.9959C9.58732 22.5184 10.1427 22.2793 11.2519 22.2793L10.7882 20.847H5.14303V22.2793C5.78932 22.2793 6.25217 22.3573 6.53332 22.5107C6.63189 22.5673 6.71589 22.6513 6.78618 22.7636C6.84189 22.8759 6.90532 23.0096 6.97646 23.1639L11.5047 35.739ZM28.7356 33.1061C28.2299 32.6295 27.9693 32.0398 27.9556 31.337L27.3865 30.5793H34.3173C34.3448 28.697 33.8605 27.293 32.8636 26.3655C32.0913 25.6353 31.0936 25.271 29.8722 25.271C28.5942 25.271 27.5348 25.6987 26.6922 26.5558C25.7785 27.4961 25.3225 28.7321 25.3225 30.263C25.3225 31.709 25.7442 32.9313 26.5868 33.9281C27.4293 34.925 28.5033 35.423 29.8088 35.423C30.3145 35.423 30.8905 35.3458 31.5368 35.1915V33.8013H30.5673C29.8371 33.8013 29.2268 33.5698 28.7356 33.1061ZM32.8782 29.2935C32.8782 29.1393 32.8576 28.9498 32.8148 28.7253C32.6048 27.461 31.9585 26.8293 30.8776 26.8293C29.5713 26.8293 28.8196 27.6435 28.6233 29.273L29.2551 29.2935H32.8782ZM48.6824 22.8057C49.441 22.8057 49.8901 23.2909 50.0307 24.2595L51.4415 23.9646L51.0207 20.8472H41.9838L41.6898 22.3C42.6584 22.3 43.1427 22.6797 43.1427 23.4383V35.2129H45.7338V29.6937C45.7338 29.3569 45.9155 29.146 46.2807 29.062L49.7144 28.2195V27.208H45.649V22.8057H48.6824ZM54.4537 34.6017C53.7517 33.8997 53.4003 32.8471 53.4003 31.4422V23.3534C53.4003 22.4971 53.0077 22.1251 52.2208 22.2374L52.3897 21.0785L55.3177 20.5308L55.7805 20.9097V32.4742L57.0448 34.0968L55.2748 35.4228L54.4537 34.6017ZM62.669 35.4231C65.8001 35.4231 67.3661 33.7037 67.3661 30.2631C67.3661 28.6483 66.9521 27.4054 66.1233 26.5337C65.309 25.692 64.157 25.2703 62.669 25.2703C61.2641 25.2703 60.155 25.6989 59.3407 26.5551C58.4981 27.4397 58.0773 28.6757 58.0773 30.2631C58.0773 31.962 58.4844 33.2469 59.2987 34.1177C60.0993 34.9886 61.223 35.4231 62.669 35.4231ZM64.9018 30.2837C64.9018 27.9386 64.151 26.766 62.6484 26.766C61.9593 26.766 61.4193 27.1097 61.0258 27.798C60.689 28.4023 60.5201 29.2234 60.5201 30.2631C60.5201 32.706 61.229 33.9274 62.6484 33.9274C64.151 33.9274 64.9018 32.7129 64.9018 30.2837ZM71.3307 32.1092V25.8984H69.7251C69.7251 25.8984 69.1785 30.8108 69.076 32.2496C68.9735 33.6882 69.6227 35.5479 71.8432 35.5479C74.0637 35.5479 75.1571 33.7583 75.1571 33.7583L76.4895 35.5479L78.1633 34.1794L77.0019 32.6355V25.9685L76.5235 25.4421L73.7905 26.179V27.2317C73.7905 27.2317 74.8496 27.758 74.8496 28.3896V31.9687C74.8496 32.8461 73.3805 33.8636 72.6973 33.8636C72.0141 33.8636 71.3307 33.0917 71.3307 32.1092ZM85.6352 28.0299C85.2135 27.5388 84.736 27.2928 84.2029 27.2928C83.29 27.2928 82.5177 27.6717 81.8852 28.4302L82.054 29.9679V33.0639C82.054 33.4719 82.1877 33.7385 82.4543 33.8645C82.6515 33.9485 83.0303 33.9914 83.5917 33.9914L83.3389 35.2128H79.6737V27.9879C79.6737 27.1591 79.2803 26.7871 78.4943 26.8711L78.6632 25.7122L81.5912 25.1654L82.054 25.5657V26.9559C82.0678 26.9559 82.0823 26.9482 82.0969 26.9345C82.4475 26.4571 82.876 26.0645 83.3817 25.7551C83.9149 25.4319 84.4343 25.2708 84.94 25.2708C85.6558 25.2708 86.2532 25.4808 86.7306 25.9025L85.846 27.9665L85.6352 28.0299ZM90.3526 23.4378C90.5634 23.1995 90.6688 22.9321 90.6688 22.6372C90.6688 22.3149 90.5565 22.0407 90.332 21.8161C90.1074 21.5915 89.84 21.4784 89.5314 21.4784C89.2083 21.4784 88.9348 21.5915 88.7103 21.8161C88.4857 22.0407 88.3725 22.3149 88.3725 22.6372C88.3725 22.9467 88.4857 23.2132 88.7103 23.4378C88.9348 23.6624 89.2083 23.7747 89.5314 23.7747C89.8545 23.7747 90.128 23.6624 90.3526 23.4378ZM89.426 34.6012C88.724 33.8718 88.3725 32.8184 88.3725 31.4418V27.9875C88.3725 27.1312 87.98 26.7592 87.1931 26.8715L87.362 25.7127L90.29 25.1649L90.7537 25.5447V32.4747L92.0171 34.0964L90.2265 35.4232L89.426 34.6012ZM98.9682 34.6439C99.6702 34.1528 100.022 33.4576 100.022 32.5585C100.022 31.8282 99.6282 31.1331 98.8422 30.4731C98.7436 30.3891 98.5113 30.2202 98.1462 29.9682L96.6513 28.9782C95.8645 28.4588 95.4788 28.0371 95.4925 27.7139C95.5062 27.1525 95.9142 26.8713 96.7148 26.8713C97.4725 26.8713 97.9568 27.0402 98.1676 27.3771L98.4205 28.3251C98.4908 28.6482 98.7505 28.8093 99.2005 28.8093C99.3968 28.8093 99.6068 28.7888 99.8322 28.7459V26.5345C99.1576 25.6919 98.1051 25.2711 96.6719 25.2711C95.5911 25.2711 94.7408 25.5025 94.1236 25.9653C93.5193 26.4008 93.2031 27.0256 93.1756 27.8408C93.1473 28.6268 93.5125 29.3433 94.2711 29.9888C94.4528 30.1576 95.1771 30.6351 96.4405 31.4211C97.2128 31.8985 97.5993 32.3339 97.5993 32.7273C97.5993 33.4859 96.9531 33.8648 95.6613 33.8648H93.3651V35.0862C94.1236 35.3108 95.0082 35.4231 96.0196 35.4231C97.2693 35.4231 98.2525 35.1642 98.9682 34.6439ZM108.3 28.9357C108.103 27.56 107.549 26.8717 106.636 26.8717C105.864 26.8717 105.084 27.356 104.298 28.3245L104.509 29.7363V35.2125H102.128V23.354C102.128 22.4968 101.735 22.1248 100.948 22.2371L101.117 21.0783L104.045 20.5305L104.509 20.9103V26.8083C105.323 25.7831 106.327 25.2705 107.521 25.2705C108.461 25.2705 109.206 25.5654 109.753 26.1551C110.329 26.8014 110.617 27.6928 110.617 28.8303V35.2125H109.121L108.3 28.9357ZM121.192 23.4378C121.402 23.1995 121.507 22.9321 121.507 22.6372C121.507 22.3149 121.394 22.0407 121.169 21.8161C120.946 21.5915 120.677 21.4784 120.37 21.4784C120.047 21.4784 119.773 21.5915 119.549 21.8161C119.322 22.0407 119.21 22.3149 119.21 22.6372C119.21 22.9467 119.322 23.2132 119.549 23.4378C119.773 23.6624 120.047 23.7747 120.37 23.7747C120.693 23.7747 120.965 23.6624 121.192 23.4378ZM120.264 34.6012C119.561 33.8718 119.21 32.8184 119.21 31.4418V27.9875C119.21 27.1312 118.817 26.7592 118.031 26.8715L118.2 25.7127L121.128 25.1649L121.592 25.5447V32.4747L122.855 34.0964L121.064 35.4232L120.264 34.6012ZM129.049 26.8717C129.96 26.8717 130.516 27.56 130.712 28.9357L131.533 35.2125H133.028V28.8097C133.028 27.6714 132.733 26.7868 132.145 26.1551C131.596 25.5654 130.86 25.2705 129.933 25.2705C128.766 25.2705 127.776 25.7831 126.962 26.8083H126.919V25.544L126.456 25.1651L123.528 25.7128L123.361 26.8717C124.147 26.7585 124.54 27.1314 124.54 27.9877V35.2125H126.919V29.7363L126.709 28.3245C127.495 27.356 128.275 26.8717 129.049 26.8717ZM146.74 35.1286C145.842 35.3249 145.042 35.4235 144.339 35.4235C143.357 35.4235 142.578 35.1492 142.002 34.6015C141.398 34.0118 141.123 33.2472 141.181 32.3061L141.707 22.6161L143.56 22.2372V25.4815H146.551V27.0818H143.56V32.4115C143.56 33.3801 143.968 33.8643 144.782 33.8643H146.74V35.1286ZM153.167 26.8717C154.078 26.8717 154.633 27.56 154.829 28.9357L155.651 35.2125H157.146V28.8303C157.146 27.6928 156.858 26.8014 156.282 26.1551C155.736 25.5654 154.99 25.2705 154.051 25.2705C152.855 25.2705 151.852 25.7831 151.037 26.8083V20.9103L150.574 20.5305L147.646 21.0783L147.479 22.2371C148.265 22.1248 148.658 22.4968 148.658 23.354V35.2125H151.037V29.7363L150.827 28.3245C151.613 27.356 152.393 26.8717 153.167 26.8717ZM161.824 31.337C161.836 32.0398 162.097 32.6295 162.603 33.1061C163.093 33.5698 163.705 33.8013 164.436 33.8013H165.405V35.1915C164.759 35.3458 164.183 35.423 163.677 35.423C162.371 35.423 161.298 34.925 160.453 33.9281C159.612 32.9313 159.191 31.709 159.191 30.263C159.191 28.7321 159.647 27.4961 160.559 26.5558C161.402 25.6987 162.463 25.271 163.74 25.271C164.962 25.271 165.958 25.6353 166.73 26.3655C167.728 27.293 168.213 28.697 168.185 30.5793H161.255L161.824 31.337ZM165.826 28.7253C165.868 28.9498 165.889 29.1393 165.889 29.2935H162.265L161.633 29.273C161.831 27.6435 162.583 26.8293 163.888 26.8293C164.969 26.8293 165.615 27.461 165.826 28.7253ZM187.731 29.7573C187.731 31.541 187.248 32.9313 186.279 33.9281C185.282 34.925 183.904 35.423 182.149 35.423C180.717 35.423 179.523 34.9884 178.569 34.1175C177.488 33.1207 176.947 31.7158 176.947 29.9047V24.2595C176.947 23.5293 176.891 23.0587 176.779 22.8478C176.596 22.469 176.187 22.2795 175.557 22.2795V20.8464H180.464L180.781 22.2795C179.812 22.2795 179.326 22.6447 179.326 23.375V29.6518C179.326 30.9435 179.517 31.8358 179.897 32.327C180.489 33.0855 181.228 33.4644 182.115 33.4644C184.073 33.4644 185.144 32.1513 185.327 29.525L185.94 20.8464H187.731V29.7573ZM197.094 34.2228C197.886 33.5345 198.299 32.6079 198.326 31.4422C198.341 30.0665 197.799 28.9222 196.7 28.0085C196.587 27.9108 195.558 27.2997 193.614 26.1759C192.5 25.5442 191.957 24.8559 191.987 24.1119C192.015 23.5788 192.239 23.1717 192.661 22.8897C193.067 22.5957 193.623 22.4619 194.324 22.4902C195.266 22.5322 195.847 22.7499 196.073 23.1425C196.17 23.3114 196.27 23.7322 196.368 24.4068C196.439 24.8559 196.663 25.0814 197.042 25.0814C197.279 25.0814 197.575 25.0179 197.926 24.8911V21.7737C197.673 21.5637 197.237 21.3382 196.621 21.0999C195.807 20.8051 195.026 20.6568 194.282 20.6568C192.906 20.6568 191.804 21.0228 190.976 21.7539C190.146 22.4722 189.733 23.4288 189.733 24.6237C189.733 25.8622 190.272 26.9165 191.354 27.7882L192.872 28.7174L194.367 29.6662C195.449 30.3417 195.975 31.0805 195.947 31.8819C195.947 32.3037 195.764 32.6765 195.398 32.9997C194.978 33.3802 194.402 33.5697 193.671 33.5697L190.069 33.5277V35.0654C190.785 35.2899 191.852 35.4022 193.272 35.4022C194.901 35.4022 196.174 35.0097 197.094 34.2228ZM213.008 34.6864C213.008 34.869 212.93 35.037 212.776 35.1921C212.594 35.3456 212.411 35.4236 212.229 35.4236C211.878 35.4236 211.632 35.2684 211.491 34.9599L209.702 31.2527H203.593L202.771 33.2533C202.729 33.3519 202.707 33.4504 202.707 33.549C202.707 33.9141 203.072 34.0967 203.804 34.0967L203.423 35.2127H198.812V34.0967C199.597 34.0967 200.074 33.8996 200.243 33.5061L204.667 22.7636C204.708 22.6513 204.731 22.5604 204.731 22.4901C204.731 22.0967 204.414 21.9004 203.781 21.9004L204.225 20.7836H207.362L212.945 34.3907C212.987 34.4893 213.008 34.5879 213.008 34.6864ZM208.838 29.4621H204.329L206.374 24.2173L208.838 29.4621Z" fill="white"/>
</mask>
<g mask="url(#mask0)">
<path fill-rule="evenodd" clip-rule="evenodd" d="M4.28572 18H214.286V36H4.28572V18Z" fill="#BF0A30"/>
</g>
<path fill-rule="evenodd" clip-rule="evenodd" d="M36.6305 15.44L40.5485 5.89826L44.3825 15.44L49.6479 0.589974L48.2997 0.0422594L44.5085 9.35255L40.7379 0.000259399L36.9459 9.35255L34.7765 3.07569C34.7345 2.9214 34.7131 2.79455 34.7131 2.69683C34.7131 2.2194 35.2685 1.98026 36.3777 1.98026L35.9139 0.547974H30.2688V1.98026C30.9151 1.98026 31.3779 2.05826 31.6591 2.21169C31.7577 2.26826 31.8417 2.35226 31.9119 2.46455C31.9677 2.57683 32.0311 2.71055 32.1022 2.86483L36.6305 15.44ZM53.0811 3.13886C53.2919 2.90057 53.3973 2.63315 53.3973 2.33829C53.3973 2.016 53.2851 1.74172 53.0605 1.51715C52.8359 1.29257 52.5685 1.17943 52.2599 1.17943C51.9368 1.17943 51.6633 1.29257 51.4388 1.51715C51.2142 1.74172 51.1011 2.016 51.1011 2.33829C51.1011 2.64772 51.2142 2.91429 51.4388 3.13886C51.6633 3.36343 51.9368 3.47572 52.2599 3.47572C52.5831 3.47572 52.8565 3.36343 53.0811 3.13886ZM52.1545 14.3023C51.4525 13.5729 51.1011 12.5194 51.1011 11.1429V7.68857C51.1011 6.83229 50.7085 6.46029 49.9216 6.57257L50.0905 5.41372L53.0185 4.866L53.4822 5.24572V12.1757L54.7456 13.7974L52.9551 15.1243L52.1545 14.3023ZM59.2741 15.1245C59.9769 15.1245 60.7767 15.026 61.6758 14.8297V13.5654H59.7164C58.9021 13.5654 58.4949 13.0811 58.4949 12.1125V6.78283H61.4864V5.18255H58.4949V1.93826L56.6409 2.31712L56.1147 12.0071C56.0581 12.9483 56.3324 13.7128 56.9367 14.3025C57.5118 14.8503 58.2909 15.1245 59.2741 15.1245ZM69.7642 8.63675C69.5679 7.26103 69.0134 6.57274 68.1005 6.57274C67.3282 6.57274 66.5482 7.05703 65.7622 8.0256L65.9731 9.43732V14.9136H63.5928V3.05503C63.5928 2.19789 63.1994 1.82589 62.4125 1.93817L62.5814 0.779317L65.5094 0.231602L65.9731 0.611317V6.50932C66.7874 5.48417 67.7911 4.9716 68.9851 4.9716C69.9254 4.9716 70.6702 5.26646 71.2179 5.85617C71.7931 6.50246 72.0819 7.39389 72.0819 8.53132V14.9136H70.5854L69.7642 8.63675ZM87.5835 15.1243C89.4238 15.1243 91.2495 14.7309 93.0607 13.9449V7.668H88.3001L87.9418 9.56315H89.2267C90.1121 9.56315 90.5544 9.94114 90.5544 10.6946V12.684C89.501 13.0054 88.5804 13.1657 87.7944 13.1657C86.4178 13.1657 85.3018 12.6754 84.4455 11.694C83.729 10.8669 83.2661 9.95657 83.0553 8.96057C82.9567 8.51229 82.9078 8.02886 82.9078 7.51029C82.9215 6.06686 83.3638 4.84029 84.2347 3.83143C85.1758 2.766 86.3484 2.23286 87.7524 2.23286C88.553 2.23286 89.2344 2.30315 89.7958 2.44372C90.0341 2.514 90.3221 2.60572 90.6598 2.71715C90.9821 2.844 91.3541 2.99829 91.7758 3.18086L92.345 1.43229C90.7293 0.716574 89.1778 0.358288 87.689 0.358288C85.499 0.358288 83.6938 1.07486 82.2753 2.50715C80.8713 3.91115 80.1693 5.688 80.1693 7.836C80.1693 9.95657 80.8575 11.7051 82.2341 13.0809C83.5961 14.4437 85.379 15.1243 87.5835 15.1243ZM101.55 7.731C101.128 7.23986 100.651 6.99386 100.117 6.99386C99.2045 6.99386 98.4322 7.37272 97.7997 8.13129L97.9685 9.669V12.765C97.9685 13.173 98.1022 13.4396 98.3688 13.5656C98.5659 13.6496 98.9448 13.6924 99.5062 13.6924L99.2534 14.9139H95.5882V7.689C95.5882 6.86015 95.1948 6.48814 94.4088 6.57214L94.5777 5.41329L97.5057 4.86643L97.9685 5.26672V6.657C97.9822 6.657 97.9968 6.64929 98.0114 6.63557C98.3619 6.15814 98.7905 5.76557 99.2962 5.45614C99.8294 5.133 100.349 4.97186 100.855 4.97186C101.57 4.97186 102.168 5.18186 102.645 5.60357L101.761 7.66757L101.55 7.731ZM107.048 12.8071C106.542 12.3305 106.281 11.7408 106.267 11.0379L105.7 10.2802H112.63C112.658 8.39794 112.173 6.99395 111.175 6.06652C110.403 5.33623 109.407 4.97195 108.184 4.97195C106.906 4.97195 105.847 5.39966 105.004 6.2568C104.091 7.19709 103.636 8.43309 103.636 9.96394C103.636 11.4099 104.056 12.6322 104.899 13.6291C105.742 14.6259 106.816 15.1239 108.122 15.1239C108.628 15.1239 109.204 15.0468 109.85 14.8925V13.5022H108.88C108.149 13.5022 107.538 13.2708 107.048 12.8071ZM110.333 8.99452C110.333 8.84023 110.313 8.6508 110.271 8.42623C110.06 7.16195 109.414 6.53023 108.332 6.53023C107.026 6.53023 106.276 7.34452 106.078 8.97395L106.709 8.99452H110.333ZM117.495 12.8071C116.989 12.3305 116.728 11.7408 116.716 11.0379L116.147 10.2802H123.077C123.105 8.39794 122.619 6.99395 121.622 6.06652C120.85 5.33623 119.854 4.97195 118.632 4.97195C117.355 4.97195 116.294 5.39966 115.451 6.2568C114.539 7.19709 114.083 8.43309 114.083 9.96394C114.083 11.4099 114.504 12.6322 115.345 13.6291C116.19 14.6259 117.262 15.1239 118.569 15.1239C119.075 15.1239 119.651 15.0468 120.297 14.8925V13.5022H119.328C118.597 13.5022 117.985 13.2708 117.495 12.8071ZM120.78 8.99452C120.78 8.84023 120.76 8.6508 120.718 8.42623C120.507 7.16195 119.861 6.53023 118.779 6.53023C117.475 6.53023 116.723 7.34452 116.525 8.97395L117.157 8.99452H120.78ZM133.208 6.1512C133.503 6.03892 133.65 5.87006 133.65 5.64549V5.18177H131.207L127.457 9.62692V0.610631L126.994 0.231774L124.066 0.779488L123.898 1.93835C124.685 1.82606 125.077 2.19806 125.077 3.0552V14.9138H127.457V11.1638C127.457 11.1089 127.48 11.0523 127.522 10.9958L127.627 10.8483C127.752 10.6803 127.9 10.7078 128.069 10.9323L131.776 14.7243C132.016 15.0192 132.281 15.1666 132.576 15.1666C132.815 15.1666 133.032 15.0681 133.23 14.8718C133.413 14.6609 133.503 14.4432 133.503 14.2186C133.503 14.0361 133.448 13.8681 133.336 13.7129L129.859 9.09977L130.828 8.00434L131.712 6.99377C132.023 6.6432 132.521 6.3612 133.208 6.1512ZM152.46 14.1344C152.46 14.3872 152.355 14.6118 152.144 14.8081C151.935 15.0189 151.703 15.1244 151.451 15.1244C151.169 15.1244 150.93 15.0052 150.736 14.7661L146.136 8.63666H144.668V12.3858C144.668 13.1161 145.152 13.4812 146.121 13.4812L145.805 14.9135H142.055V3.13895C142.055 2.38037 141.578 2.00152 140.623 2.00152L140.918 0.547802H146.343C147.812 0.547802 148.977 0.892374 149.831 1.58066C150.7 2.28266 151.133 3.23752 151.133 4.44437C151.133 6.08752 150.378 7.26094 148.866 7.96209L152.355 13.7555C152.425 13.8678 152.46 13.9947 152.46 14.1344ZM145.805 2.38037C147.617 2.38037 148.528 3.0618 148.543 4.4238C148.558 5.95466 147.608 6.72009 145.7 6.72009H144.561V2.38037H145.805ZM162.592 9.9642C162.592 13.4048 161.026 15.1242 157.896 15.1242C156.447 15.1242 155.324 14.6896 154.525 13.8188C153.71 12.9479 153.302 11.6631 153.302 9.9642C153.302 8.37677 153.723 7.14077 154.567 6.2562C155.381 5.39992 156.491 4.97135 157.896 4.97135C159.384 4.97135 160.535 5.39306 161.35 6.23477C162.178 7.10649 162.592 8.34935 162.592 9.9642ZM157.873 6.46706C159.375 6.46706 160.128 7.63963 160.128 9.98477C160.128 12.4139 159.375 13.6285 157.873 13.6285C156.456 13.6285 155.747 12.4071 155.747 9.9642C155.747 8.92449 155.915 8.10334 156.253 7.49906C156.645 6.81077 157.184 6.46706 157.873 6.46706ZM173.293 9.9642C173.293 13.4048 171.727 15.1242 168.597 15.1242C167.149 15.1242 166.025 14.6896 165.226 13.8188C164.411 12.9479 164.003 11.6631 164.003 9.9642C164.003 8.37677 164.424 7.14077 165.268 6.2562C166.082 5.39992 167.192 4.97135 168.597 4.97135C170.085 4.97135 171.236 5.39306 172.051 6.23477C172.879 7.10649 173.293 8.34935 173.293 9.9642ZM168.574 6.46706C170.077 6.46706 170.829 7.63963 170.829 9.98477C170.829 12.4139 170.077 13.6285 168.574 13.6285C167.157 13.6285 166.448 12.4071 166.448 9.9642C166.448 8.92449 166.616 8.10334 166.954 7.49906C167.346 6.81077 167.885 6.46706 168.574 6.46706ZM180.56 14.8297C179.66 15.026 178.861 15.1245 178.158 15.1245C177.176 15.1245 176.396 14.8503 175.82 14.3025C175.217 13.7128 174.942 12.9483 174.999 12.0071L175.526 2.31712L177.379 1.93826V5.18255H180.369V6.78283H177.379V12.1125C177.379 13.0811 177.787 13.5654 178.601 13.5654H180.56V14.8297ZM187.743 14.3449C188.445 13.8537 188.796 13.1586 188.796 12.2595C188.796 11.5292 188.403 10.834 187.617 10.174C187.518 10.09 187.285 9.92117 186.921 9.66917L185.424 8.67917C184.638 8.15975 184.252 7.73803 184.267 7.41489C184.28 6.85346 184.689 6.57232 185.489 6.57232C186.246 6.57232 186.732 6.74117 186.942 7.07803L187.195 8.02603C187.265 8.34917 187.525 8.51032 187.974 8.51032C188.171 8.51032 188.382 8.48975 188.605 8.44689V6.23546C187.931 5.39289 186.88 4.97203 185.447 4.97203C184.366 4.97203 183.516 5.20346 182.897 5.66632C182.293 6.10175 181.978 6.7266 181.95 7.54175C181.921 8.32775 182.286 9.04432 183.046 9.68975C183.228 9.8586 183.952 10.336 185.214 11.122C185.987 11.5995 186.374 12.0349 186.374 12.4283C186.374 13.1869 185.728 13.5657 184.435 13.5657H182.139V14.7872C182.897 15.0117 183.782 15.124 184.792 15.124C186.042 15.124 187.027 14.8652 187.743 14.3449Z" fill="black"/>
<mask id="mask1" mask-type="alpha" maskUnits="userSpaceOnUse" x="30" y="0" width="159" height="16">
<path fill-rule="evenodd" clip-rule="evenodd" d="M36.6305 15.44L40.5485 5.89826L44.3825 15.44L49.6479 0.589974L48.2997 0.0422594L44.5085 9.35255L40.7379 0.000259399L36.9459 9.35255L34.7765 3.07569C34.7345 2.9214 34.7131 2.79455 34.7131 2.69683C34.7131 2.2194 35.2685 1.98026 36.3777 1.98026L35.9139 0.547974H30.2688V1.98026C30.9151 1.98026 31.3779 2.05826 31.6591 2.21169C31.7577 2.26826 31.8417 2.35226 31.9119 2.46455C31.9677 2.57683 32.0311 2.71055 32.1022 2.86483L36.6305 15.44ZM53.0811 3.13886C53.2919 2.90057 53.3973 2.63315 53.3973 2.33829C53.3973 2.016 53.2851 1.74172 53.0605 1.51715C52.8359 1.29257 52.5685 1.17943 52.2599 1.17943C51.9368 1.17943 51.6633 1.29257 51.4388 1.51715C51.2142 1.74172 51.1011 2.016 51.1011 2.33829C51.1011 2.64772 51.2142 2.91429 51.4388 3.13886C51.6633 3.36343 51.9368 3.47572 52.2599 3.47572C52.5831 3.47572 52.8565 3.36343 53.0811 3.13886ZM52.1545 14.3023C51.4525 13.5729 51.1011 12.5194 51.1011 11.1429V7.68857C51.1011 6.83229 50.7085 6.46029 49.9216 6.57257L50.0905 5.41372L53.0185 4.866L53.4822 5.24572V12.1757L54.7456 13.7974L52.9551 15.1243L52.1545 14.3023ZM59.2741 15.1245C59.9769 15.1245 60.7767 15.026 61.6758 14.8297V13.5654H59.7164C58.9021 13.5654 58.4949 13.0811 58.4949 12.1125V6.78283H61.4864V5.18255H58.4949V1.93826L56.6409 2.31712L56.1147 12.0071C56.0581 12.9483 56.3324 13.7128 56.9367 14.3025C57.5118 14.8503 58.2909 15.1245 59.2741 15.1245ZM69.7642 8.63675C69.5679 7.26103 69.0134 6.57274 68.1005 6.57274C67.3282 6.57274 66.5482 7.05703 65.7622 8.0256L65.9731 9.43732V14.9136H63.5928V3.05503C63.5928 2.19789 63.1994 1.82589 62.4125 1.93817L62.5814 0.779317L65.5094 0.231602L65.9731 0.611317V6.50932C66.7874 5.48417 67.7911 4.9716 68.9851 4.9716C69.9254 4.9716 70.6702 5.26646 71.2179 5.85617C71.7931 6.50246 72.0819 7.39389 72.0819 8.53132V14.9136H70.5854L69.7642 8.63675ZM87.5835 15.1243C89.4238 15.1243 91.2495 14.7309 93.0607 13.9449V7.668H88.3001L87.9418 9.56315H89.2267C90.1121 9.56315 90.5544 9.94114 90.5544 10.6946V12.684C89.501 13.0054 88.5804 13.1657 87.7944 13.1657C86.4178 13.1657 85.3018 12.6754 84.4455 11.694C83.729 10.8669 83.2661 9.95657 83.0553 8.96057C82.9567 8.51229 82.9078 8.02886 82.9078 7.51029C82.9215 6.06686 83.3638 4.84029 84.2347 3.83143C85.1758 2.766 86.3484 2.23286 87.7524 2.23286C88.553 2.23286 89.2344 2.30315 89.7958 2.44372C90.0341 2.514 90.3221 2.60572 90.6598 2.71715C90.9821 2.844 91.3541 2.99829 91.7758 3.18086L92.345 1.43229C90.7293 0.716574 89.1778 0.358288 87.689 0.358288C85.499 0.358288 83.6938 1.07486 82.2753 2.50715C80.8713 3.91115 80.1693 5.688 80.1693 7.836C80.1693 9.95657 80.8575 11.7051 82.2341 13.0809C83.5961 14.4437 85.379 15.1243 87.5835 15.1243ZM101.55 7.731C101.128 7.23986 100.651 6.99386 100.117 6.99386C99.2045 6.99386 98.4322 7.37272 97.7997 8.13129L97.9685 9.669V12.765C97.9685 13.173 98.1022 13.4396 98.3688 13.5656C98.5659 13.6496 98.9448 13.6924 99.5062 13.6924L99.2534 14.9139H95.5882V7.689C95.5882 6.86015 95.1948 6.48814 94.4088 6.57214L94.5777 5.41329L97.5057 4.86643L97.9685 5.26672V6.657C97.9822 6.657 97.9968 6.64929 98.0114 6.63557C98.3619 6.15814 98.7905 5.76557 99.2962 5.45614C99.8294 5.133 100.349 4.97186 100.855 4.97186C101.57 4.97186 102.168 5.18186 102.645 5.60357L101.761 7.66757L101.55 7.731ZM107.048 12.8071C106.542 12.3305 106.281 11.7408 106.267 11.0379L105.7 10.2802H112.63C112.658 8.39794 112.173 6.99395 111.175 6.06652C110.403 5.33623 109.407 4.97195 108.184 4.97195C106.906 4.97195 105.847 5.39966 105.004 6.2568C104.091 7.19709 103.636 8.43309 103.636 9.96394C103.636 11.4099 104.056 12.6322 104.899 13.6291C105.742 14.6259 106.816 15.1239 108.122 15.1239C108.628 15.1239 109.204 15.0468 109.85 14.8925V13.5022H108.88C108.149 13.5022 107.538 13.2708 107.048 12.8071ZM110.333 8.99452C110.333 8.84023 110.313 8.6508 110.271 8.42623C110.06 7.16195 109.414 6.53023 108.332 6.53023C107.026 6.53023 106.276 7.34452 106.078 8.97395L106.709 8.99452H110.333ZM117.495 12.8071C116.989 12.3305 116.728 11.7408 116.716 11.0379L116.147 10.2802H123.077C123.105 8.39794 122.619 6.99395 121.622 6.06652C120.85 5.33623 119.854 4.97195 118.632 4.97195C117.355 4.97195 116.294 5.39966 115.451 6.2568C114.539 7.19709 114.083 8.43309 114.083 9.96394C114.083 11.4099 114.504 12.6322 115.345 13.6291C116.19 14.6259 117.262 15.1239 118.569 15.1239C119.075 15.1239 119.651 15.0468 120.297 14.8925V13.5022H119.328C118.597 13.5022 117.985 13.2708 117.495 12.8071ZM120.78 8.99452C120.78 8.84023 120.76 8.6508 120.718 8.42623C120.507 7.16195 119.861 6.53023 118.779 6.53023C117.475 6.53023 116.723 7.34452 116.525 8.97395L117.157 8.99452H120.78ZM133.208 6.1512C133.503 6.03892 133.65 5.87006 133.65 5.64549V5.18177H131.207L127.457 9.62692V0.610631L126.994 0.231774L124.066 0.779488L123.898 1.93835C124.685 1.82606 125.077 2.19806 125.077 3.0552V14.9138H127.457V11.1638C127.457 11.1089 127.48 11.0523 127.522 10.9958L127.627 10.8483C127.752 10.6803 127.9 10.7078 128.069 10.9323L131.776 14.7243C132.016 15.0192 132.281 15.1666 132.576 15.1666C132.815 15.1666 133.032 15.0681 133.23 14.8718C133.413 14.6609 133.503 14.4432 133.503 14.2186C133.503 14.0361 133.448 13.8681 133.336 13.7129L129.859 9.09977L130.828 8.00434L131.712 6.99377C132.023 6.6432 132.521 6.3612 133.208 6.1512ZM152.46 14.1344C152.46 14.3872 152.355 14.6118 152.144 14.8081C151.935 15.0189 151.703 15.1244 151.451 15.1244C151.169 15.1244 150.93 15.0052 150.736 14.7661L146.136 8.63666H144.668V12.3858C144.668 13.1161 145.152 13.4812 146.121 13.4812L145.805 14.9135H142.055V3.13895C142.055 2.38037 141.578 2.00152 140.623 2.00152L140.918 0.547802H146.343C147.812 0.547802 148.977 0.892374 149.831 1.58066C150.7 2.28266 151.133 3.23752 151.133 4.44437C151.133 6.08752 150.378 7.26094 148.866 7.96209L152.355 13.7555C152.425 13.8678 152.46 13.9947 152.46 14.1344ZM145.805 2.38037C147.617 2.38037 148.528 3.0618 148.543 4.4238C148.558 5.95466 147.608 6.72009 145.7 6.72009H144.561V2.38037H145.805ZM162.592 9.9642C162.592 13.4048 161.026 15.1242 157.896 15.1242C156.447 15.1242 155.324 14.6896 154.525 13.8188C153.71 12.9479 153.302 11.6631 153.302 9.9642C153.302 8.37677 153.723 7.14077 154.567 6.2562C155.381 5.39992 156.491 4.97135 157.896 4.97135C159.384 4.97135 160.535 5.39306 161.35 6.23477C162.178 7.10649 162.592 8.34935 162.592 9.9642ZM157.873 6.46706C159.375 6.46706 160.128 7.63963 160.128 9.98477C160.128 12.4139 159.375 13.6285 157.873 13.6285C156.456 13.6285 155.747 12.4071 155.747 9.9642C155.747 8.92449 155.915 8.10334 156.253 7.49906C156.645 6.81077 157.184 6.46706 157.873 6.46706ZM173.293 9.9642C173.293 13.4048 171.727 15.1242 168.597 15.1242C167.149 15.1242 166.025 14.6896 165.226 13.8188C164.411 12.9479 164.003 11.6631 164.003 9.9642C164.003 8.37677 164.424 7.14077 165.268 6.2562C166.082 5.39992 167.192 4.97135 168.597 4.97135C170.085 4.97135 171.236 5.39306 172.051 6.23477C172.879 7.10649 173.293 8.34935 173.293 9.9642ZM168.574 6.46706C170.077 6.46706 170.829 7.63963 170.829 9.98477C170.829 12.4139 170.077 13.6285 168.574 13.6285C167.157 13.6285 166.448 12.4071 166.448 9.9642C166.448 8.92449 166.616 8.10334 166.954 7.49906C167.346 6.81077 167.885 6.46706 168.574 6.46706ZM180.56 14.8297C179.66 15.026 178.861 15.1245 178.158 15.1245C177.176 15.1245 176.396 14.8503 175.82 14.3025C175.217 13.7128 174.942 12.9483 174.999 12.0071L175.526 2.31712L177.379 1.93826V5.18255H180.369V6.78283H177.379V12.1125C177.379 13.0811 177.787 13.5654 178.601 13.5654H180.56V14.8297ZM187.743 14.3449C188.445 13.8537 188.796 13.1586 188.796 12.2595C188.796 11.5292 188.403 10.834 187.617 10.174C187.518 10.09 187.285 9.92117 186.921 9.66917L185.424 8.67917C184.638 8.15975 184.252 7.73803 184.267 7.41489C184.28 6.85346 184.689 6.57232 185.489 6.57232C186.246 6.57232 186.732 6.74117 186.942 7.07803L187.195 8.02603C187.265 8.34917 187.525 8.51032 187.974 8.51032C188.171 8.51032 188.382 8.48975 188.605 8.44689V6.23546C187.931 5.39289 186.88 4.97203 185.447 4.97203C184.366 4.97203 183.516 5.20346 182.897 5.66632C182.293 6.10175 181.978 6.7266 181.95 7.54175C181.921 8.32775 182.286 9.04432 183.046 9.68975C183.228 9.8586 183.952 10.336 185.214 11.122C185.987 11.5995 186.374 12.0349 186.374 12.4283C186.374 13.1869 185.728 13.5657 184.435 13.5657H182.139V14.7872C182.897 15.0117 183.782 15.124 184.792 15.124C186.042 15.124 187.027 14.8652 187.743 14.3449Z" fill="white"/>
</mask>
<g mask="url(#mask1)">
<path fill-rule="evenodd" clip-rule="evenodd" d="M30.8571 0H192V18H30.8571V0Z" fill="#002868"/>
</g>
</svg>
